HIERARCHY
ROOT Hips
{
	OFFSET 0.000000 0.000000 0.000000
	CHANNELS 6 Xposition Yposition Zposition Zrotation Yrotation Xrotation 
	JOINT LHipJoint
	{
		OFFSET 0.000000 0.000000 0.000000
		CHANNELS 3 Zrotation Yrotation Xrotation
		JOINT LeftUpLeg
		{
			OFFSET 1.363060 -1.794630 0.839290
			CHANNELS 3 Zrotation Yrotation Xrotation
			JOINT LeftLeg
			{
				OFFSET 2.448110 -6.726130 0.000000
				CHANNELS 3 Zrotation Yrotation Xrotation
				JOINT LeftFoot
				{
					OFFSET 2.562200 -7.039590 0.000000
					CHANNELS 3 Zrotation Yrotation Xrotation
					JOINT LeftToeBase
					{
						OFFSET 0.157640 -0.433110 2.322550
						CHANNELS 3 Zrotation Yrotation Xrotation
						End Site
						{
							OFFSET 0.000000 0.000000 0.000000
						}
					}
				}
			}
		}
	}
	JOINT RHipJoint
	{
		OFFSET 0.000000 0.000000 0.000000
		CHANNELS 3 Zrotation Yrotation Xrotation
		JOINT RightUpLeg
		{
			OFFSET -1.305520 -1.794630 0.839290
			CHANNELS 3 Zrotation Yrotation Xrotation
			JOINT RightLeg
			{
				OFFSET -2.542530 -6.985550 0.000000
				CHANNELS 3 Zrotation Yrotation Xrotation
				JOINT RightFoot
				{
					OFFSET -2.568260 -7.056230 0.000000
					CHANNELS 3 Zrotation Yrotation Xrotation
					JOINT RightToeBase
					{
						OFFSET -0.164730 -0.452590 2.363150
						CHANNELS 3 Zrotation Yrotation Xrotation
						End Site
						{
							OFFSET 0.000000 0.000000 0.000000
						}
					}
				}
			}
		}
	}
	JOINT LowerBack
	{
		OFFSET 0.000000 0.000000 0.000000
		CHANNELS 3 Zrotation Yrotation Xrotation
		JOINT Spine
		{
			OFFSET 0.028270 2.035590 -0.193380
			CHANNELS 3 Zrotation Yrotation Xrotation
			JOINT Spine1
			{
				OFFSET 0.056720 2.048850 -0.042750
				CHANNELS 3 Zrotation Yrotation Xrotation
				JOINT Neck
				{
					OFFSET 0.000000 0.000000 0.000000
					CHANNELS 3 Zrotation Yrotation Xrotation
					JOINT Neck1
					{
						OFFSET -0.054170 1.746240 0.172020
						CHANNELS 3 Zrotation Yrotation Xrotation
						JOINT Head
						{
							OFFSET 0.104070 1.761360 -0.123970
							CHANNELS 3 Zrotation Yrotation Xrotation
							End Site
							{
								OFFSET 0.000000 0.000000 0.000000
							}
						}
					}
				}
				JOINT LeftShoulder
				{
					OFFSET 0.000000 0.000000 0.000000
					CHANNELS 3 Zrotation Yrotation Xrotation
					JOINT LeftArm
					{
						OFFSET 3.362410 1.200890 -0.311210
						CHANNELS 3 Zrotation Yrotation Xrotation
						JOINT LeftForeArm
						{
							OFFSET 4.983000 -0.000000 -0.000000
							CHANNELS 3 Zrotation Yrotation Xrotation
							JOINT LeftHand
							{
								OFFSET 3.483560 -0.000000 -0.000000
								CHANNELS 3 Zrotation Yrotation Xrotation
								JOINT LeftFingerBase
								{
									OFFSET 0.000000 0.000000 0.000000
									CHANNELS 3 Zrotation Yrotation Xrotation
									JOINT LeftHandIndex1
									{
										OFFSET 0.715260 -0.000000 -0.000000
										CHANNELS 3 Zrotation Yrotation Xrotation
										End Site
										{
											OFFSET 0.000000 0.000000 0.000000
										}
									}
								}
								JOINT LThumb
								{
									OFFSET 0.000000 0.000000 0.000000
									CHANNELS 3 Zrotation Yrotation Xrotation
									End Site
									{
										OFFSET 0.000000 0.000000 0.000000
									}
								}
							}
						}
					}
				}
				JOINT RightShoulder
				{
					OFFSET 0.000000 0.000000 0.000000
					CHANNELS 3 Zrotation Yrotation Xrotation
					JOINT RightArm
					{
						OFFSET -3.136600 1.374050 -0.404650
						CHANNELS 3 Zrotation Yrotation Xrotation
						JOINT RightForeArm
						{
							OFFSET -5.241900 -0.000000 -0.000000
							CHANNELS 3 Zrotation Yrotation Xrotation
							JOINT RightHand
							{
								OFFSET -3.444170 -0.000000 -0.000000
								CHANNELS 3 Zrotation Yrotation Xrotation
								JOINT RightFingerBase
								{
									OFFSET 0.000000 0.000000 0.000000
									CHANNELS 3 Zrotation Yrotation Xrotation
									JOINT RightHandIndex1
									{
										OFFSET -0.622530 -0.000000 -0.000000
										CHANNELS 3 Zrotation Yrotation Xrotation
										End Site
										{
											OFFSET 0.000000 0.000000 0.000000
										}
									}
								}
								JOINT RThumb
								{
									OFFSET 0.000000 0.000000 0.000000
									CHANNELS 3 Zrotation Yrotation Xrotation
									End Site
									{
										OFFSET 0.000000 0.000000 0.000000
									}
								}
							}
						}
					}
				}
			}
		}
	}
}
MOTION
Frames: 12
Frame Time: 0.008333
1.253507 18.012084 -0.419389 15.388238 80.685393 28.745534 -3.638791 0.279786 1.667156 -21.583835 6.878759 -20.801145 1.141378 5.065819 15.258289 0.187747 1.131824 0.173879 1.954200 -8.770000 -25.078600 -3.162714 -3.170637 0.002327 17.007262 -6.540262 -13.239155 -0.960195 0.563228 0.980165 -0.733469 14.072148 12.035697 -0.669300 5.231600 -14.570200 -1.599855 -2.454475 -11.645313 0.465376 -3.417539 -1.496393 -0.706783 -1.882756 3.930225 -5.138298 -7.113023 -21.021808 8.674172 -8.704691 25.010669 0.477500 -2.634800 11.403900 -1.497841 -6.345974 2.298851 -70.258340 -29.737141 67.390062 84.108783 -54.851129 -52.316729 1.750641 1.966827 -7.104590 19.832811 28.557678 8.337600 -7.125000 0.000000 0.000000 -13.769700 57.692900 -4.333300 2.874128 8.293463 2.061230 45.366828 28.557267 22.172883 -49.912547 50.313473 -17.244945 -0.366519 -1.902019 3.486616 -15.170450 -0.306814 -0.452200 7.125000 0.000000 0.000000 8.989100 -28.183100 3.720000 
1.262926 18.015871 -0.397153 16.265817 80.966713 29.734262 -3.633603 0.255338 1.652893 -21.533150 6.797372 -20.825338 1.137219 5.031567 15.188140 0.226090 0.958710 0.341160 1.979800 -8.823800 -25.245600 -3.153267 -3.199025 0.011224 17.091806 -6.790875 -13.342775 -0.958247 0.557540 0.975691 -0.733799 14.138662 11.948719 -0.686600 5.297500 -14.759100 -1.654866 -2.480841 -11.622922 0.423189 -3.452882 -1.556444 -0.689379 -1.896496 3.940756 -5.109640 -7.042699 -21.340725 8.646746 -8.581542 25.076521 0.479300 -2.575100 11.474200 -1.529029 -6.362411 2.280095 -70.052141 -28.250307 67.025380 84.884596 -54.980124 -53.078509 1.767606 1.896005 -6.903937 19.407163 27.885682 7.958400 -7.125000 0.000000 0.000000 -13.874300 56.995300 -4.132300 2.891160 8.332459 2.153197 45.755180 27.205876 22.954441 -51.405115 51.037799 -18.250842 -0.366397 -1.925940 2.635308 -15.391092 -0.377976 -0.445400 7.125000 0.000000 0.000000 8.843800 -28.231800 3.648200 
1.273996 18.015968 -0.376955 16.107211 80.884276 29.617003 -3.623664 0.250641 1.635856 -21.498184 6.873814 -20.855233 1.140930 5.053888 15.241909 0.224008 0.972986 0.302666 2.008500 -8.883700 -25.432300 -3.152186 -3.192981 -0.001840 17.130232 -6.701184 -13.325004 -0.959961 0.555938 0.976967 -0.734086 14.176164 11.926499 -0.685000 5.291400 -14.741400 -1.607868 -2.355306 -11.526318 0.355387 -3.303358 -1.719445 -0.724931 -1.808902 3.900739 -5.044042 -6.943666 -21.439358 8.460980 -8.411323 25.148139 0.434700 -2.512900 11.500900 -1.562760 -6.377687 2.259563 -69.958744 -26.565968 66.710997 85.744775 -55.120999 -53.917528 1.768466 1.901551 -6.956281 19.283952 28.057678 7.944100 -7.125000 0.000000 0.000000 -14.101600 57.136300 -4.250100 2.907876 8.371939 2.270915 46.410759 25.653949 23.624472 -53.061694 51.782030 -19.375731 -0.369169 -1.938981 2.008997 -15.558950 -0.344640 -0.462400 7.125000 0.000000 0.000000 8.728800 -28.184700 3.609600 
1.284483 18.014608 -0.356272 15.242284 80.904383 28.762934 -3.623319 0.264684 1.643820 -21.294384 6.890439 -20.825095 1.136764 5.066685 15.250232 0.195644 1.103274 0.260225 2.109200 -9.089900 -26.076900 -3.160736 -3.188900 -0.006157 17.351333 -6.668396 -13.275120 -0.961541 0.564366 0.980416 -0.735111 14.186890 11.936053 -0.659600 5.194200 -14.463400 -1.505619 -2.244489 -11.559019 0.449902 -3.164180 -1.645323 -0.804666 -1.726037 3.960842 -5.022422 -6.848556 -21.550480 8.332404 -8.241760 25.022633 0.406100 -2.459200 11.472900 -1.603586 -6.394438 2.227624 -69.806655 -25.005459 66.422792 86.731143 -55.240063 -54.869182 1.774457 1.943962 -7.270910 19.515596 28.545762 8.175100 -7.125000 0.000000 0.000000 -14.146900 57.642600 -4.437900 2.908055 8.406919 2.368463 47.201083 24.227950 23.998591 -54.691720 52.449470 -20.485675 -0.364827 -1.944774 1.550212 -15.578942 -0.294662 -0.477400 7.125000 0.000000 0.000000 8.717700 -28.129500 3.616500 
1.295261 18.017230 -0.333647 14.667722 81.078407 28.285229 -3.618913 0.265251 1.639089 -21.043535 6.781277 -20.846619 1.134259 5.073175 15.256769 0.203781 1.071662 0.245755 2.104400 -9.080200 -26.046400 -3.165673 -3.197983 -0.007951 17.626001 -6.751778 -13.327944 -0.961646 0.568607 0.982253 -0.736941 14.183504 11.891967 -0.662700 5.206300 -14.497900 -1.535971 -2.213829 -11.630266 0.686686 -3.102959 -1.666365 -0.793373 -1.687828 4.040418 -4.851491 -6.682503 -21.631793 7.913470 -7.965577 24.907924 0.285300 -2.384100 11.431200 -1.658660 -6.423680 2.204874 -69.778611 -23.480044 66.087887 87.490989 -55.348493 -55.600867 1.741073 1.972609 -7.647384 19.271298 28.967298 8.172600 -7.125000 0.000000 0.000000 -14.620600 57.987100 -4.712700 2.895867 8.430172 2.461040 47.915828 22.763212 24.458078 -56.300467 53.050257 -21.577236 -0.347701 -1.938601 1.296755 -15.340133 -0.243361 -0.480800 7.125000 0.000000 0.000000 8.891800 -28.088100 3.699100 
1.307108 18.019949 -0.311896 14.533207 81.292575 28.216723 -3.616245 0.261467 1.637900 -20.863712 6.739657 -20.882183 1.133931 5.078604 15.271048 0.232034 0.951337 0.252159 2.113700 -9.098900 -26.105300 -3.167618 -3.211047 -0.006553 17.834351 -6.909784 -13.361106 -0.960970 0.571959 0.981946 -0.737776 14.220113 11.841922 -0.677600 5.263300 -14.661200 -1.473450 -2.182154 -11.661515 0.736922 -3.067323 -1.657442 -0.840823 -1.659320 4.093029 -4.611216 -6.502716 -21.831593 7.620059 -7.708939 24.862426 0.190900 -2.289400 11.432800 -1.688352 -6.434055 2.182447 -69.637624 -21.945225 65.757902 88.024722 -55.444816 -56.102912 1.708616 1.982747 -7.866468 18.945944 29.152893 8.069300 -7.125000 0.000000 0.000000 -15.042300 58.090500 -4.890300 2.890650 8.453901 2.550660 48.719911 21.344240 24.910933 -57.780959 53.562240 -22.605402 -0.347629 -1.936723 1.325406 -15.321296 -0.212345 -0.488000 7.125000 0.000000 0.000000 8.903300 -28.058300 3.710300 
1.321382 18.018978 -0.289271 15.118032 81.523739 28.864852 -3.612570 0.244697 1.629204 -20.771969 6.640139 -20.852978 1.134151 5.070072 15.262139 0.261281 0.822020 0.272612 2.108500 -9.088600 -26.072800 -3.162873 -3.231588 -0.004224 17.924816 -7.124743 -13.392934 -0.959418 0.570064 0.977928 -0.738560 14.258024 11.832182 -0.639600 5.116700 -14.241700 -1.363066 -2.137267 -11.687708 0.542056 -3.042730 -1.723842 -0.927104 -1.632981 4.145768 -4.361003 -6.322792 -21.898903 7.437760 -7.487548 24.744862 0.122700 -2.199500 11.393300 -1.684920 -6.446376 2.163628 -69.422141 -20.370299 65.510577 88.315328 -55.531528 -56.370638 1.704687 1.944928 -8.058590 18.800476 28.632696 7.871400 -7.125000 0.000000 0.000000 -14.903500 57.588100 -4.662500 2.901467 8.475376 2.644735 49.652390 19.826938 25.414835 -59.208026 54.014532 -23.606440 -0.362388 -1.926645 1.338976 -15.371832 0.027198 -0.551300 7.125000 0.000000 0.000000 8.858000 -27.822400 3.741000 
1.337210 18.020046 -0.269268 15.515572 81.719614 29.345630 -3.610955 0.231992 1.622114 -20.665044 6.470238 -20.778088 1.130880 5.053603 15.224252 0.261099 0.822589 0.232072 2.086000 -9.043000 -25.929800 -3.156705 -3.249233 0.000644 18.022929 -7.293398 -13.439075 -0.958635 0.568191 0.975900 -0.738204 14.353539 11.732310 -0.637500 5.108400 -14.218100 -1.212920 -2.074779 -11.761424 0.403430 -2.994312 -1.760877 -1.050318 -1.594662 4.226681 -4.416732 -6.186404 -21.864265 7.502988 -7.286563 24.449633 0.165300 -2.122800 11.297400 -1.676974 -6.462153 2.146747 -69.239378 -18.850603 65.261865 88.676182 -55.609379 -56.699652 1.679693 1.930048 -8.256931 18.499750 28.461574 7.692900 -7.125000 0.000000 0.000000 -15.101500 57.370900 -4.646700 2.915951 8.496076 2.724679 50.582280 18.362811 25.913756 -60.574689 54.412167 -24.579508 -0.368193 -1.931770 1.323778 -15.462522 0.042392 -0.560500 7.125000 0.000000 0.000000 8.791300 -27.799700 3.717000 
1.355368 18.020337 -0.248779 14.692932 81.882988 28.575993 -3.615671 0.245390 1.633178 -20.373388 6.285896 -20.688558 1.124681 5.058075 15.210992 0.224441 0.988735 0.146537 2.059300 -8.988600 -25.759700 -3.164381 -3.251810 0.000337 18.294000 -7.395403 -13.419361 -0.959196 0.577614 0.978684 -0.738304 14.439780 11.651726 -0.640000 5.118100 -14.245700 -1.009677 -1.985591 -11.884653 0.481369 -2.896145 -1.660616 -1.192450 -1.529720 4.329752 -4.415269 -6.039156 -22.032639 7.390651 -7.038510 24.264311 0.152600 -2.035900 11.265300 -1.689266 -6.465659 2.125773 -69.246663 -17.356352 64.878707 88.859668 -55.687913 -56.854893 1.645867 1.912824 -8.274241 18.022129 28.353974 7.451700 -7.125000 0.000000 0.000000 -15.499500 57.173800 -4.698900 2.906799 8.520623 2.788140 51.371703 16.983781 26.415834 -61.800223 54.739125 -25.463800 -0.375819 -1.943014 1.198357 -15.633320 0.030919 -0.567200 7.125000 0.000000 0.000000 8.669100 -27.797300 3.664700 
1.368768 18.020823 -0.224017 14.050479 81.980483 27.947439 -3.615847 0.256137 1.640798 -20.101009 6.081390 -20.568734 1.118869 5.057552 15.187369 0.176008 1.201860 0.197491 1.996400 -8.858600 -25.354000 -3.169968 -3.254711 0.000204 18.513919 -7.448626 -13.375796 -0.959659 0.585181 0.980297 -0.739391 14.454749 11.666723 -0.629100 5.075400 -14.123700 -0.962547 -1.881597 -11.936459 0.580236 -2.760637 -1.562256 -1.232776 -1.448500 4.396222 -4.389851 -5.884073 -22.168788 7.223310 -6.781979 24.044967 0.123200 -1.953800 11.214700 -1.706412 -6.474147 2.106803 -69.328385 -15.840903 64.457665 89.089267 -55.766600 -57.059993 1.610171 1.893782 -8.261746 17.472590 28.268719 7.185200 -7.125000 0.000000 0.000000 -15.979800 56.984800 -4.776100 2.894591 8.538380 2.846924 52.071468 15.552119 26.950122 -62.816461 54.984277 -26.190028 -0.383379 -1.941749 1.141134 -15.660483 0.157326 -0.602300 7.125000 0.000000 0.000000 8.646200 -27.668400 3.681400 
1.380906 18.019755 -0.200130 13.872513 82.226523 27.787580 -3.615401 0.255761 1.642524 -19.840618 5.821118 -20.425018 1.115307 5.054202 15.168877 0.140993 1.354194 0.247923 1.983000 -8.830600 -25.266800 -3.173552 -3.269153 -0.000983 18.722617 -7.653072 -13.356211 -0.958727 0.590554 0.977628 -0.741245 14.442978 11.770158 -0.568300 4.828200 -13.419200 -0.908240 -1.833040 -11.945464 0.638724 -2.703290 -1.550314 -1.276335 -1.405420 4.442668 -4.308496 -5.686424 -22.125702 7.037141 -6.496269 23.725235 0.084100 -1.862500 11.101400 -1.719929 -6.496528 2.093894 -69.346834 -14.257432 64.027340 89.422820 -55.842597 -57.363050 1.597028 1.890094 -8.253874 17.254382 28.282195 7.089900 -7.125000 0.000000 0.000000 -16.197400 56.952700 -4.830800 2.893936 8.554296 2.904650 52.728271 13.940173 27.660442 -64.025127 55.249138 -27.050736 -0.384165 -1.934779 0.904188 -15.559759 0.337798 -0.644300 7.125000 0.000000 0.000000 8.717700 -27.493800 3.748800 
1.396249 18.017327 -0.176728 15.247563 82.482611 29.180543 -3.605790 0.223017 1.622401 -19.796408 5.544489 -20.235207 1.115995 5.030224 15.133339 0.136147 1.367040 0.257337 1.918500 -8.694300 -24.843600 -3.152827 -3.301088 0.005795 18.710692 -7.919807 -13.361793 -0.956102 0.581792 0.970625 -0.741162 14.559276 11.655954 -0.566500 4.820500 -13.397300 -0.972625 -1.793457 -11.897392 0.518330 -2.659494 -1.660472 -1.248445 -1.375125 4.445249 -4.157271 -5.487369 -22.099813 6.776480 -6.214070 23.540694 0.015900 -1.768300 11.029600 -1.719144 -6.523018 2.089020 -69.431614 -12.628483 63.615152 89.548687 -55.918187 -57.464452 1.544307 1.886494 -8.237406 16.600014 28.401748 6.826500 -7.125000 0.000000 0.000000 -16.877200 56.925300 -5.030100 2.908799 8.568172 2.968858 53.442015 12.230717 28.355104 -65.291144 55.500416 -27.955839 -0.390845 -1.917397 0.805909 -15.411726 0.636687 -0.712300 7.125000 0.000000 0.000000 8.818600 -27.208800 3.853100 
